C:\Users\lingh\OneDrive - KTH\ExMaterials\7-Doctor\Research\2-simulation\PredSimResults\Falisse_et_al_20220.2weak\Falisse_et_al_2022_v1.mot
version=1
nRows=4
nColumns=124
inDegrees=yes
endheader
                time	         pelvis_tilt	         pelvis_list	     pelvis_rotation	           pelvis_tx	           pelvis_ty	           pelvis_tz	       hip_flexion_r	     hip_adduction_r	      hip_rotation_r	        knee_angle_r	       ankle_angle_r	    subtalar_angle_r	         mtp_angle_r	       hip_flexion_l	     hip_adduction_l	      hip_rotation_l	        knee_angle_l	       ankle_angle_l	    subtalar_angle_l	         mtp_angle_l	    lumbar_extension	      lumbar_bending	     lumbar_rotation	          arm_flex_r	           arm_add_r	           arm_rot_r	        elbow_flex_r	          arm_flex_l	           arm_add_l	           arm_rot_l	        elbow_flex_l	glut_med1_r/activation	glut_med2_r/activation	glut_med3_r/activation	glut_min1_r/activation	glut_min2_r/activation	glut_min3_r/activation	semimem_r/activation	semiten_r/activation	bifemlh_r/activation	bifemsh_r/activation	    sar_r/activation	add_long_r/activation	add_brev_r/activation	add_mag1_r/activation	add_mag2_r/activation	add_mag3_r/activation	    tfl_r/activation	   pect_r/activation	   grac_r/activation	glut_max1_r/activation	glut_max2_r/activation	glut_max3_r/activation	iliacus_r/activation	  psoas_r/activation	quad_fem_r/activation	    gem_r/activation	   peri_r/activation	rect_fem_r/activation	vas_med_r/activation	vas_int_r/activation	vas_lat_r/activation	med_gas_r/activation	lat_gas_r/activation	 soleus_r/activation	tib_post_r/activation	flex_dig_r/activation	flex_hal_r/activation	tib_ant_r/activation	per_brev_r/activation	per_long_r/activation	per_tert_r/activation	ext_dig_r/activation	ext_hal_r/activation	glut_med1_l/activation	glut_med2_l/activation	glut_med3_l/activation	glut_min1_l/activation	glut_min2_l/activation	glut_min3_l/activation	semimem_l/activation	semiten_l/activation	bifemlh_l/activation	bifemsh_l/activation	    sar_l/activation	add_long_l/activation	add_brev_l/activation	add_mag1_l/activation	add_mag2_l/activation	add_mag3_l/activation	    tfl_l/activation	   pect_l/activation	   grac_l/activation	glut_max1_l/activation	glut_max2_l/activation	glut_max3_l/activation	iliacus_l/activation	  psoas_l/activation	quad_fem_l/activation	    gem_l/activation	   peri_l/activation	rect_fem_l/activation	vas_med_l/activation	vas_int_l/activation	vas_lat_l/activation	med_gas_l/activation	lat_gas_l/activation	 soleus_l/activation	tib_post_l/activation	flex_dig_l/activation	flex_hal_l/activation	tib_ant_l/activation	per_brev_l/activation	per_long_l/activation	per_tert_l/activation	ext_dig_l/activation	ext_hal_l/activation	 ercspn_r/activation	 ercspn_l/activation	 intobl_r/activation	 intobl_l/activation	 extobl_r/activation	 extobl_l/activation	
          2.00000000	         -6.17807431	          5.07489352	        -14.88315158	          2.63559090	          0.92849064	          0.00439514	         19.50976631	         -0.89234526	         -0.15929101	        -29.89601165	         17.34033593	          2.60226773	          1.57342345	         19.00532811	          3.78160967	         -9.79100593	        -41.60984598	          1.04743718	          6.83499947	         27.13790126	          3.75674727	          1.30211231	         -6.42812391	        -28.49190782	        -15.39078486	         -5.89783796	         51.36649088	         -6.71620200	        -16.63038873	         16.70257625	         97.74009364	          0.95703754	          0.83942964	          0.05000432	          0.83980300	          0.81317860	          0.57643736	          0.36921175	          0.21772183	          0.05620126	          0.05000184	          0.05001158	          0.05441056	          0.07655214	          0.05787771	          0.15787938	          0.78215934	          0.19959826	          0.07724571	          0.05000894	          0.07690586	          0.17747324	          0.25075651	          0.05000143	          0.05000102	          0.05000034	          0.05000106	          0.05000307	          0.07495469	          0.13614666	          0.13828227	          0.10417858	          0.05534866	          0.05492455	          0.06576672	          0.32067903	          0.28766096	          0.16342891	          0.60144506	          0.06666832	          0.06666687	          0.34976499	          0.63050067	          0.75289708	          0.18459012	          0.18074348	          0.29109634	          0.06032825	          0.11281145	          0.19946486	          0.16778805	          0.11852387	          0.10219449	          0.11923094	          0.16448055	          0.05000184	          0.05000178	          0.05000548	          0.05000406	          0.05000516	          0.54163514	          0.05001233	          0.17254568	          0.06673405	          0.06759831	          0.05000142	          0.38782105	          0.53539287	          0.10693643	          0.39427930	          0.25499603	          0.53798912	          0.06666577	          0.06666726	          0.05751980	          0.15802437	          0.23205329	          0.13506973	          0.31819106	          0.33576508	          0.32198005	          0.11651497	          0.05000254	          0.09822534	          0.05000181	          0.31642148	          0.05005939	          0.13349715	          0.06195398	          0.05000054	          0.14444716	          0.08676215	          0.05000087	
          2.02000000	         -5.92775053	          5.33538136	        -14.83244002	          2.65995664	          0.92595484	          0.00339437	         19.10205127	         -0.74385262	          0.27396810	        -27.86317929	         17.38363507	          1.36550745	          1.00560702	         21.59364800	          3.27416022	        -11.00424539	        -48.71584283	         -0.23855726	          8.19721478	         23.95026954	          3.77687374	          1.70106380	         -6.59147761	        -27.57537703	        -15.06405776	         -6.16429678	         50.56556536	         -5.87390089	        -17.09400417	         16.04064990	         92.71262129	          0.98158629	          0.71671538	          0.09658621	          0.90572004	          0.73337966	          0.43240014	          0.27784084	          0.16329256	          0.05000123	          0.05000035	          0.05000556	          0.05000058	          0.05741476	          0.05000692	          0.11841134	          0.72210269	          0.14971342	          0.05793557	          0.05000136	          0.14072073	          0.26606756	          0.31352553	          0.05000033	          0.05000040	          0.05000132	          0.05000303	          0.05001436	          0.05621657	          0.29958264	          0.28920169	          0.22915853	          0.05000010	          0.05000024	          0.05000008	          0.37736471	          0.21576888	          0.21256542	          0.82919020	          0.05000145	          0.05000036	          0.37110351	          0.55728891	          0.72863730	          0.13844400	          0.13555852	          0.21832282	          0.11228391	          0.08465315	          0.14960151	          0.12584493	          0.08889495	          0.07664851	          0.12280717	          0.27983014	          0.16635644	          0.05000343	          0.05000258	          0.05000190	          0.05000050	          0.41017226	          0.33642460	          0.19182964	          0.05005279	          0.05069891	          0.05000036	          0.33906307	          0.42900512	          0.08020288	          0.45351215	          0.19125076	          0.72945753	          0.05000019	          0.05000054	          0.05000011	          0.11851837	          0.17404009	          0.10130232	          0.23864338	          0.25182429	          0.24148539	          0.42957131	          0.46206866	          0.15793713	          0.59285755	          0.70703611	          0.59288066	          0.10012310	          0.05942384	          0.05000937	          0.23778195	          0.06507835	          0.05000076	
          2.04000000	         -5.68107119	          5.49368591	        -14.68354132	          2.68470151	          0.92071535	          0.00237552	         17.84453906	         -1.06663408	          0.81643065	        -28.50048761	         19.02654131	          0.45646226	          1.62961238	         24.46544232	          2.58639141	        -12.10889333	        -55.78258309	         -0.11771660	          8.77778780	         18.76501512	          3.79682426	          2.11540034	         -6.66350171	        -26.22599353	        -14.96943479	         -5.66081658	         48.34116221	         -4.84756075	        -17.43407845	         15.56187040	         87.10702468	          0.95176762	          0.53753974	          0.07244150	          0.67932254	          0.55005255	          0.32431939	          0.30205256	          0.16973111	          0.15072840	          0.06667767	          0.06666706	          0.05963006	          0.06666345	          0.05000640	          0.08880923	          0.55314032	          0.15079449	          0.06664380	          0.05024989	          0.10554294	          0.19955125	          0.23514603	          0.06666519	          0.05001636	          0.05000063	          0.05000244	          0.57127931	          0.05000092	          0.35746270	          0.38591383	          0.30176063	          0.19844937	          0.25191370	          0.22937689	          0.39168438	          0.16183863	          0.21439200	          0.62189288	          0.16408667	          0.15151911	          0.27832921	          0.41796722	          0.54647887	          0.10383369	          0.10166991	          0.16374293	          0.08421677	          0.06349641	          0.11220399	          0.09438595	          0.06667195	          0.05748876	          0.09210659	          0.21695484	          0.50906720	          0.05000173	          0.05000431	          0.05000233	          0.05000069	          0.30764844	          0.25634098	          0.14387421	          0.05000820	          0.05000064	          0.05000053	          0.26245775	          0.32176358	          0.20677799	          0.34013642	          0.14344039	          0.81636763	          0.05000068	          0.05000060	          0.05000047	          0.08888896	          0.13053024	          0.07597685	          0.17898345	          0.18887025	          0.18111524	          0.54221525	          0.34655175	          0.11845297	          0.54467679	          0.63312926	          0.77547468	          0.07509288	          0.07526757	          0.05000129	          0.25062920	          0.05000892	          0.33402142	
          2.06000000	         -5.47673331	          5.56404097	        -14.48799303	          2.70911307	          0.91430426	          0.00161199	         15.93959539	         -1.54767244	          1.12017315	        -28.60766435	         20.80533177	          0.16362245	          3.75449630	         27.26464429	          1.87632237	        -12.90580012	        -60.85205030	          2.31537132	          8.37775888	         14.50411050	          3.73555511	          2.43778228	         -6.66197231	        -24.16761753	        -15.01673905	         -4.18487006	         44.51748572	         -3.54148951	        -17.61058810	         15.26744408	         80.71122385	          0.97932369	          0.80179196	          0.60247276	          0.50951889	          0.70921192	          0.71040389	          0.22654056	          0.12729945	          0.11304699	          0.05000887	          0.05002560	          0.05000035	          0.05000064	          0.05000137	          0.06660776	          0.41485669	          0.11313199	          0.05000210	          0.05000192	          0.45043476	          0.49500895	          0.17637514	          0.05000038	          0.05000039	          0.05001106	          0.06277373	          0.42846921	          0.05000217	          0.45728734	          0.48255743	          0.37366564	          0.22403905	          0.26702951	          0.28072942	          0.45289790	          0.26554629	          0.25946725	          0.46642085	          0.12306606	          0.11364304	          0.20875006	          0.31347735	          0.40986202	          0.07787667	          0.07625382	          0.12280796	          0.06317911	          0.05003095	          0.08415635	          0.07079188	          0.05000497	          0.05000116	          0.07832032	          0.16272879	          0.48877553	          0.10107223	          0.05001451	          0.05000494	          0.05000122	          0.23082142	          0.35380719	          0.10790729	          0.05000838	          0.05000102	          0.05000096	          0.22615036	          0.28019726	          0.15508666	          0.52555289	          0.10758385	          0.80475584	          0.05000104	          0.05000104	          0.05000068	          0.06666690	          0.09789781	          0.05698272	          0.13423770	          0.14165341	          0.13583691	          0.44183603	          0.27127054	          0.08884112	          0.69070166	          0.66999524	          0.87569258	          0.05631980	          0.13339945	          0.05000554	          0.30967474	          0.05000116	          0.26443035	
